<svg id='cloud' width="86" height="39" viewBox="0 0 86 39" fill="none" xmlns="http://www.w3.org/2000/svg">
<path d="M5.45744 35.7682H70.9209C70.9209 35.7682 80.4599 30.2874 82.1892 24.2316C83.7975 18.5997 83.0682 14.1251 79.5063 9.47553C76.0869 5.01194 72.2394 2.67499 66.6282 3.0365C60.4381 3.43531 54.5335 6.51347 54.0185 12.695C53.7323 16.1296 56.9697 21.0121 56.9697 21.0121" stroke="#9A9A9A" stroke-width="5"/>
<path d="M55.8965 10.5487C55.8965 10.5487 49.8003 6.21691 45.4331 6.52432C40.9865 6.8373 38.6508 8.99907 35.5063 12.1585C32.5907 15.0878 28.0289 17.7276 30.1404 21.2804C31.3622 23.3363 35.5063 24.2317 35.5063 24.2317" stroke="#9A9A9A" stroke-width="5"/>
<path d="M30.677 18.8658C30.677 18.8658 25.6339 16.0608 22.0916 15.9146C17.0178 15.7052 14.1517 17.7939 10.0184 20.7438C6.82176 23.0253 3.59967 24.1001 3.0428 27.9878C2.582 31.2046 5.99402 35.7682 5.99402 35.7682" stroke="#9A9A9A" stroke-width="5"/>
</svg>
