<svg  viewBox="0 0 339 417" fill="none" xmlns="http://www.w3.org/2000/svg">
<path d="M94.875 339.469C78.2812 334.781 65.7656 327.047 57.3281 316.266C48.9844 305.578 44.8125 291.422 44.8125 273.797V245.812C44.8125 223.031 34.875 211.641 15 211.641V191.25C34.875 191.25 44.8125 179.906 44.8125 157.219V127.969C45 110.812 49.1719 96.9844 57.3281 86.4844C65.5781 75.8906 78.0938 68.2031 94.875 63.4219L100.219 79.5938C80.625 85.875 70.8281 102.234 70.8281 128.672V157.078C70.8281 178.359 63 193.172 47.3438 201.516C63 209.953 70.8281 224.906 70.8281 246.375V275.344C71.1094 301.125 80.9062 317.109 100.219 323.297L94.875 339.469Z" fill="#474350" fill-opacity="0.44"/>
<path d="M94.875 339.469L94.6032 340.431L95.5242 340.691L95.8245 339.782L94.875 339.469ZM57.3281 316.266L56.5399 316.881L56.5406 316.882L57.3281 316.266ZM15 211.641H14V212.641H15V211.641ZM15 191.25V190.25H14V191.25H15ZM44.8125 127.969L43.8125 127.958V127.969H44.8125ZM57.3281 86.4844L56.5391 85.87L56.5384 85.8709L57.3281 86.4844ZM94.875 63.4219L95.8245 63.1081L95.5235 62.1973L94.601 62.4601L94.875 63.4219ZM100.219 79.5938L100.524 80.546L101.485 80.238L101.168 79.28L100.219 79.5938ZM47.3438 201.516L46.8734 200.633L45.2268 201.511L46.8693 202.396L47.3438 201.516ZM70.8281 275.344H69.8281L69.8282 275.355L70.8281 275.344ZM100.219 323.297L101.168 323.611L101.485 322.652L100.524 322.345L100.219 323.297ZM95.1468 338.506C78.7038 333.861 66.3918 326.224 58.1156 315.649L56.5406 316.882C65.1395 327.869 77.8587 335.701 94.6032 340.431L95.1468 338.506ZM58.1164 315.65C49.9462 305.185 45.8125 291.266 45.8125 273.797H43.8125C43.8125 291.578 48.0225 305.971 56.5399 316.881L58.1164 315.65ZM45.8125 273.797V245.812H43.8125V273.797H45.8125ZM45.8125 245.812C45.8125 234.299 43.3042 225.477 38.1129 219.526C32.8989 213.55 25.1298 210.641 15 210.641V212.641C24.7452 212.641 31.8824 215.427 36.6058 220.841C41.352 226.281 43.8125 234.545 43.8125 245.812H45.8125ZM16 211.641V191.25H14V211.641H16ZM15 192.25C25.1286 192.25 32.8972 189.353 38.1116 183.401C43.3038 177.474 45.8125 168.687 45.8125 157.219H43.8125C43.8125 168.438 41.3524 176.667 36.6072 182.083C31.8841 187.475 24.7464 190.25 15 190.25V192.25ZM45.8125 157.219V127.969H43.8125V157.219H45.8125ZM45.8124 127.98C45.9983 110.978 50.1301 97.3809 58.1179 87.0978L56.5384 85.8709C48.2137 96.5878 44.0017 110.647 43.8126 127.958L45.8124 127.98ZM58.1171 87.0988C66.2024 76.7165 78.5108 69.1241 95.149 64.3836L94.601 62.4601C77.6767 67.2822 64.9538 75.0647 56.5391 85.87L58.1171 87.0988ZM93.9255 63.7356L99.2692 79.9075L101.168 79.28L95.8245 63.1081L93.9255 63.7356ZM99.9135 78.6415C89.905 81.8499 82.3514 87.6551 77.3179 96.0604C72.2972 104.444 69.8281 115.339 69.8281 128.672H71.8281C71.8281 115.567 74.2575 105.064 79.0337 97.088C83.797 89.1339 90.9387 83.6188 100.524 80.546L99.9135 78.6415ZM69.8281 128.672V157.078H71.8281V128.672H69.8281ZM69.8281 157.078C69.8281 178.078 62.1324 192.501 46.8734 200.633L47.8141 202.398C63.8676 193.843 71.8281 178.64 71.8281 157.078H69.8281ZM46.8693 202.396C62.129 210.62 69.8281 225.183 69.8281 246.375H71.8281C71.8281 224.629 63.871 209.287 47.8182 200.635L46.8693 202.396ZM69.8281 246.375V275.344H71.8281V246.375H69.8281ZM69.8282 275.355C69.9701 288.361 72.5122 298.997 77.5341 307.191C82.5683 315.404 90.0494 321.089 99.9136 324.249L100.524 322.345C91.0756 319.317 84.002 313.916 79.2393 306.145C74.4644 298.355 71.9674 288.108 71.8281 275.333L69.8282 275.355ZM99.2692 322.983L93.9255 339.155L95.8245 339.782L101.168 323.611L99.2692 322.983Z" fill="#E31C37"/>
<path d="M94.875 327.469C78.2812 322.781 65.7656 315.047 57.3281 304.266C48.9844 293.578 44.8125 279.422 44.8125 261.797V233.812C44.8125 211.031 34.875 199.641 15 199.641V179.25C34.875 179.25 44.8125 167.906 44.8125 145.219V115.969C45 98.8125 49.1719 84.9844 57.3281 74.4844C65.5781 63.8906 78.0938 56.2031 94.875 51.4219L100.219 67.5938C80.625 73.875 70.8281 90.2344 70.8281 116.672V145.078C70.8281 166.359 63 181.172 47.3438 189.516C63 197.953 70.8281 212.906 70.8281 234.375V263.344C71.1094 289.125 80.9062 305.109 100.219 311.297L94.875 327.469Z" fill="url(#paint0_linear)"/>
<path d="M96.4688 361.438C96.4688 363.219 95.9531 364.766 94.9219 366.078C93.8906 367.391 92.4844 368.281 90.7031 368.75C90.4219 368.75 89.2969 368.891 87.3281 369.172C85.4531 369.453 83.0156 369.594 80.0156 369.594C69.9844 369.594 61.5 367.578 54.5625 363.547C47.625 359.609 42 354.406 37.6875 347.938C33.375 341.469 30.2344 334.062 28.2656 325.719C26.2969 317.469 25.3125 309.031 25.3125 300.406C25.3125 295.25 25.6875 290.188 26.4375 285.219C27.2812 280.156 28.125 275.141 28.9688 270.172C29.9062 265.203 30.75 260.234 31.5 255.266C32.3438 250.297 32.7656 245.281 32.7656 240.219C32.7656 236.469 32.3906 232.859 31.6406 229.391C30.8906 225.828 29.5312 222.453 27.5625 219.266C25.6875 216.078 23.1094 213.078 19.8281 210.266C16.5469 207.359 12.4219 204.594 7.45312 201.969C6.14062 201.406 5.15625 200.516 4.5 199.297C3.84375 198.078 3.51562 196.766 3.51562 195.359C3.51562 194.047 3.84375 192.828 4.5 191.703C5.15625 190.484 6.14062 189.594 7.45312 189.031C12.4219 186.406 16.5469 183.641 19.8281 180.734C23.1094 177.828 25.6875 174.781 27.5625 171.594C29.5312 168.312 30.8906 164.938 31.6406 161.469C32.3906 157.906 32.7656 154.203 32.7656 150.359C32.7656 145.109 32.3438 139.953 31.5 134.891C30.75 129.828 29.9062 124.812 28.9688 119.844C28.125 114.875 27.2812 109.953 26.4375 105.078C25.6875 100.109 25.3125 95.1406 25.3125 90.1719C25.3125 81.0781 26.3438 72.4063 28.4062 64.1562C30.5625 55.8125 33.8438 48.4531 38.25 42.0781C42.75 35.7031 48.4219 30.6406 55.2656 26.8906C62.2031 23.0469 70.4531 21.125 80.0156 21.125C83.0156 21.125 85.4531 21.2656 87.3281 21.5469C89.2969 21.8281 90.4219 22.0625 90.7031 22.25C92.4844 22.5312 93.8906 23.375 94.9219 24.7812C95.9531 26.0937 96.4688 27.6406 96.4688 29.4219C96.4688 31.7656 95.625 33.5469 93.9375 34.7656C92.25 35.9844 90.6094 36.5938 89.0156 36.5938C86.4844 36.6875 83.8125 37.3906 81 38.7031C78.1875 40.0156 75.6094 41.8906 73.2656 44.3281C70.9219 46.6719 68.9531 49.5312 67.3594 52.9062C65.8594 56.1875 65.1094 59.8906 65.1094 64.0156C65.1094 70.6719 65.9531 77.2344 67.6406 83.7031C69.4219 90.1719 71.3438 96.7344 73.4062 103.391C75.5625 110.047 77.4844 116.844 79.1719 123.781C80.9531 130.625 81.8438 137.75 81.8438 145.156C81.8438 150.594 81.2344 155.844 80.0156 160.906C78.8906 165.875 77.1094 170.516 74.6719 174.828C72.3281 179.141 69.375 183.078 65.8125 186.641C62.25 190.109 58.0781 193.016 53.2969 195.359C63.1406 200.703 70.3594 207.734 74.9531 216.453C79.5469 225.078 81.8438 234.734 81.8438 245.422C81.8438 252.828 80.9531 260 79.1719 266.938C77.4844 273.781 75.5625 280.531 73.4062 287.188C71.3438 293.844 69.4219 300.453 67.6406 307.016C65.9531 313.578 65.1094 320.234 65.1094 326.984C65.1094 330.641 65.6719 334.109 66.7969 337.391C67.9219 340.672 69.5156 343.531 71.5781 345.969C73.7344 348.406 76.2656 350.328 79.1719 351.734C82.0781 353.234 85.3594 353.984 89.0156 353.984C91.1719 354.172 92.9531 354.969 94.3594 356.375C95.7656 357.781 96.4688 359.469 96.4688 361.438Z" fill="url(#paint1_linear)" fill-opacity="0.44"/>
<path d="M90.7031 368.75V370.75H90.9619L91.2121 370.684L90.7031 368.75ZM87.3281 369.172L87.0453 367.192L87.0314 367.194L87.3281 369.172ZM54.5625 363.547L55.5673 361.818L55.5585 361.813L55.5497 361.808L54.5625 363.547ZM28.2656 325.719L30.2122 325.259L30.211 325.255L28.2656 325.719ZM26.4375 285.219L24.4647 284.89L24.4622 284.905L24.4599 284.92L26.4375 285.219ZM28.9688 270.172L27.0034 269.801L27 269.819L26.997 269.837L28.9688 270.172ZM31.5 255.266L29.5282 254.931L29.5251 254.949L29.5224 254.967L31.5 255.266ZM31.6406 229.391L29.6835 229.803L29.6858 229.813L31.6406 229.391ZM27.5625 219.266L25.8386 220.28L25.8496 220.298L25.8609 220.317L27.5625 219.266ZM19.8281 210.266L18.5021 211.763L18.5142 211.774L18.5265 211.784L19.8281 210.266ZM7.45312 201.969L8.38737 200.2L8.31558 200.162L8.24096 200.13L7.45312 201.969ZM4.5 191.703L6.22756 192.711L6.24476 192.681L6.26094 192.651L4.5 191.703ZM7.45312 189.031L8.24096 190.87L8.31558 190.838L8.38737 190.8L7.45312 189.031ZM27.5625 171.594L25.8475 170.565L25.843 170.572L25.8386 170.58L27.5625 171.594ZM31.6406 161.469L33.5955 161.891L33.5977 161.881L31.6406 161.469ZM31.5 134.891L29.5216 135.184L29.5242 135.202L29.5272 135.219L31.5 134.891ZM28.9688 119.844L26.997 120.179L27 120.197L27.0034 120.215L28.9688 119.844ZM26.4375 105.078L24.4599 105.377L24.4631 105.398L24.4668 105.419L26.4375 105.078ZM28.4062 64.1562L26.4699 63.6558L26.4679 63.6635L26.466 63.6712L28.4062 64.1562ZM38.25 42.0781L36.6161 40.9248L36.6104 40.9328L36.6047 40.941L38.25 42.0781ZM55.2656 26.8906L56.2267 28.6446L56.2349 28.6401L55.2656 26.8906ZM87.3281 21.5469L87.0314 23.5248L87.0453 23.5268L87.3281 21.5469ZM90.7031 22.25L89.5937 23.9141L89.9583 24.1572L90.3912 24.2255L90.7031 22.25ZM94.9219 24.7812L93.3091 25.964L93.3287 25.9908L93.3492 26.0169L94.9219 24.7812ZM89.0156 36.5938V34.5938H88.9786L88.9416 34.5951L89.0156 36.5938ZM73.2656 44.3281L74.6798 45.7423L74.6937 45.7285L74.7073 45.7143L73.2656 44.3281ZM67.3594 52.9062L65.5509 52.0522L65.5456 52.0635L65.5404 52.0747L67.3594 52.9062ZM67.6406 83.7031L65.7054 84.208L65.7088 84.2211L65.7124 84.2341L67.6406 83.7031ZM73.4062 103.391L71.4959 103.983L71.4996 103.995L71.5036 104.007L73.4062 103.391ZM79.1719 123.781L77.2285 124.254L77.2323 124.27L77.2364 124.285L79.1719 123.781ZM80.0156 160.906L78.0712 160.438L78.068 160.451L78.065 160.465L80.0156 160.906ZM74.6719 174.828L72.9307 173.844L72.9226 173.858L72.9146 173.873L74.6719 174.828ZM65.8125 186.641L67.2077 188.074L67.2173 188.064L67.2267 188.055L65.8125 186.641ZM53.2969 195.359L52.4166 193.564L48.9379 195.269L52.3427 197.117L53.2969 195.359ZM74.9531 216.453L73.1837 217.385L73.1879 217.393L74.9531 216.453ZM79.1719 266.938L77.2347 266.44L77.2323 266.449L77.23 266.459L79.1719 266.938ZM73.4062 287.188L71.5036 286.571L71.4996 286.583L71.4959 286.596L73.4062 287.188ZM67.6406 307.016L65.7105 306.492L65.707 306.505L65.7036 306.518L67.6406 307.016ZM71.5781 345.969L70.0514 347.261L70.0656 347.277L70.0801 347.294L71.5781 345.969ZM79.1719 351.734L80.0892 349.957L80.0662 349.945L80.043 349.934L79.1719 351.734ZM89.0156 353.984L89.1889 351.992L89.1024 351.984H89.0156V353.984ZM94.4688 361.438C94.4688 362.803 94.0844 363.907 93.3492 364.842L96.4945 367.314C97.8219 365.624 98.4688 363.635 98.4688 361.438H94.4688ZM93.3492 364.842C92.615 365.777 91.6002 366.446 90.1941 366.816L91.2121 370.684C93.3685 370.117 95.1662 369.004 96.4945 367.314L93.3492 364.842ZM90.7031 366.75C90.4096 366.75 89.9159 366.806 89.4004 366.871C88.8208 366.943 88.034 367.051 87.0453 367.192L87.611 371.152C88.591 371.012 89.3511 370.908 89.8965 370.84C90.506 370.764 90.7154 370.75 90.7031 370.75V366.75ZM87.0314 367.194C85.2941 367.455 82.9664 367.594 80.0156 367.594V371.594C83.0649 371.594 85.6121 371.452 87.6248 371.15L87.0314 367.194ZM80.0156 367.594C70.25 367.594 62.1321 365.632 55.5673 361.818L53.5577 365.276C60.8679 369.524 69.7187 371.594 80.0156 371.594V367.594ZM55.5497 361.808C48.8766 358.02 43.4862 353.03 39.3516 346.828L36.0234 349.047C40.5138 355.783 46.3734 361.199 53.5753 365.286L55.5497 361.808ZM39.3516 346.828C35.1841 340.577 32.1318 333.395 30.2122 325.259L26.3191 326.178C28.3369 334.73 31.5659 342.361 36.0234 349.047L39.3516 346.828ZM30.211 325.255C28.2792 317.159 27.3125 308.878 27.3125 300.406H23.3125C23.3125 309.185 24.3146 317.778 26.3203 326.183L30.211 325.255ZM27.3125 300.406C27.3125 295.347 27.6804 290.385 28.4151 285.517L24.4599 284.92C23.6946 289.99 23.3125 295.153 23.3125 300.406H27.3125ZM28.4103 285.548C29.2537 280.487 30.0971 275.473 30.9405 270.507L26.997 269.837C26.1529 274.808 25.3088 279.825 24.4647 284.89L28.4103 285.548ZM30.9341 270.543C31.8761 265.55 32.7239 260.557 33.4776 255.564L29.5224 254.967C28.7761 259.912 27.9364 264.856 27.0034 269.801L30.9341 270.543ZM33.4718 255.6C34.3344 250.521 34.7656 245.393 34.7656 240.219H30.7656C30.7656 245.17 30.3531 250.073 29.5282 254.931L33.4718 255.6ZM34.7656 240.219C34.7656 236.335 34.3771 232.583 33.5955 228.968L29.6858 229.813C30.4041 233.136 30.7656 236.603 30.7656 240.219H34.7656ZM33.5977 228.979C32.7987 225.183 31.3507 221.593 29.2641 218.215L25.8609 220.317C27.7118 223.313 28.9825 226.473 29.6835 229.803L33.5977 228.979ZM29.2864 218.252C27.2823 214.845 24.551 211.68 21.1297 208.747L18.5265 211.784C21.6678 214.477 24.0927 217.312 25.8386 220.28L29.2864 218.252ZM21.1542 208.768C17.7256 205.732 13.4597 202.88 8.38737 200.2L6.51888 203.737C11.3841 206.307 15.3681 208.987 18.5021 211.763L21.1542 208.768ZM8.24096 200.13C7.32992 199.74 6.69557 199.156 6.26094 198.349L2.73906 200.245C3.61693 201.875 4.95133 203.072 6.66529 203.807L8.24096 200.13ZM6.26094 198.349C5.7642 197.426 5.51562 196.44 5.51562 195.359H1.51562C1.51562 197.091 1.9233 198.73 2.73906 200.245L6.26094 198.349ZM5.51562 195.359C5.51562 194.398 5.75118 193.528 6.22756 192.711L2.77244 190.695C1.93632 192.129 1.51562 193.696 1.51562 195.359H5.51562ZM6.26094 192.651C6.69557 191.844 7.32992 191.26 8.24096 190.87L6.66529 187.193C4.95133 187.928 3.61693 189.125 2.73906 190.755L6.26094 192.651ZM8.38737 190.8C13.4597 188.12 17.7256 185.268 21.1542 182.232L18.5021 179.237C15.3681 182.013 11.3841 184.693 6.51888 187.263L8.38737 190.8ZM21.1542 182.232C24.5643 179.211 27.2873 176.006 29.2864 172.608L25.8386 170.58C24.0877 173.556 21.6545 176.445 18.5021 179.237L21.1542 182.232ZM29.2775 172.623C31.35 169.169 32.7957 165.59 33.5955 161.891L29.6858 161.046C28.9855 164.285 27.7125 167.456 25.8475 170.565L29.2775 172.623ZM33.5977 161.881C34.3778 158.175 34.7656 154.334 34.7656 150.359H30.7656C30.7656 154.072 30.4035 157.637 29.6835 161.057L33.5977 161.881ZM34.7656 150.359C34.7656 145.002 34.3351 139.735 33.4728 134.562L29.5272 135.219C30.3524 140.171 30.7656 145.217 30.7656 150.359H34.7656ZM33.4784 134.598C32.7246 129.509 31.8765 124.468 30.9341 119.473L27.0034 120.215C27.936 125.157 28.7754 130.147 29.5216 135.184L33.4784 134.598ZM30.9405 119.509C30.0964 114.538 29.2523 109.614 28.4082 104.737L24.4668 105.419C25.3102 110.292 26.1536 115.212 26.997 120.179L30.9405 119.509ZM28.4151 104.78C27.6798 99.9086 27.3125 95.0396 27.3125 90.1719H23.3125C23.3125 95.2417 23.6952 100.31 24.4599 105.377L28.4151 104.78ZM27.3125 90.1719C27.3125 81.2304 28.3263 72.7221 30.3465 64.6413L26.466 63.6712C24.3612 72.0904 23.3125 80.9259 23.3125 90.1719H27.3125ZM30.3426 64.6567C32.4466 56.5152 35.6369 49.3764 39.8953 43.2153L36.6047 40.941C32.0506 47.5299 28.6784 55.1098 26.4699 63.6558L30.3426 64.6567ZM39.8839 43.2315C44.2083 37.1053 49.65 32.2482 56.2267 28.6446L54.3046 25.1367C47.1937 29.033 41.2917 34.3009 36.6161 40.9248L39.8839 43.2315ZM56.2349 28.6401C62.8204 24.9913 70.7228 23.125 80.0156 23.125V19.125C70.1835 19.125 61.5858 21.1024 54.2963 25.1412L56.2349 28.6401ZM80.0156 23.125C82.9664 23.125 85.2941 23.2641 87.0314 23.5247L87.6248 19.569C85.6121 19.2671 83.0649 19.125 80.0156 19.125V23.125ZM87.0453 23.5268C88.0132 23.665 88.7387 23.787 89.2405 23.8916C89.4931 23.9442 89.6601 23.9865 89.7593 24.0162C89.9139 24.0626 89.789 24.0443 89.5937 23.9141L91.8125 20.5859C91.4766 20.362 91.1056 20.244 90.9087 20.1849C90.6563 20.1092 90.3662 20.0402 90.0563 19.9756C89.4332 19.8458 88.6118 19.71 87.611 19.567L87.0453 23.5268ZM90.3912 24.2255C91.671 24.4276 92.6016 24.9992 93.3091 25.964L96.5347 23.5985C95.1797 21.7508 93.2977 20.6349 91.0151 20.2745L90.3912 24.2255ZM93.3492 26.0169C94.0844 26.9525 94.4688 28.0565 94.4688 29.4219H98.4688C98.4688 27.2247 97.8219 25.235 96.4945 23.5456L93.3492 26.0169ZM94.4688 29.4219C94.4688 31.2168 93.8621 32.353 92.7665 33.1443L95.1085 36.387C97.3879 34.7407 98.4688 32.3145 98.4688 29.4219H94.4688ZM92.7665 33.1443C91.316 34.1919 90.0767 34.5938 89.0156 34.5938V38.5938C91.142 38.5938 93.184 37.7769 95.1085 36.387L92.7665 33.1443ZM88.9416 34.5951C86.0903 34.7007 83.1558 35.49 80.1542 36.8908L81.8458 40.5155C84.4692 39.2912 86.8784 38.6743 89.0896 38.5924L88.9416 34.5951ZM80.1542 36.8908C77.0994 38.3164 74.3231 40.3428 71.824 42.9419L74.7073 45.7143C76.8957 43.4384 79.2756 41.7149 81.8458 40.5155L80.1542 36.8908ZM71.8514 42.9139C69.3259 45.4395 67.2306 48.4952 65.5509 52.0522L69.1679 53.7603C70.6757 50.5673 72.5179 47.9043 74.6798 45.7423L71.8514 42.9139ZM65.5404 52.0747C63.9052 55.6519 63.1094 59.6447 63.1094 64.0156H67.1094C67.1094 60.1365 67.8136 56.7231 69.1783 53.7378L65.5404 52.0747ZM63.1094 64.0156C63.1094 70.843 63.9751 77.5751 65.7054 84.208L69.5759 83.1983C67.9312 76.8936 67.1094 70.5008 67.1094 64.0156H63.1094ZM65.7124 84.2341C67.4995 90.724 69.4273 97.3069 71.4959 103.983L75.3166 102.799C73.2602 96.1619 71.3443 89.6197 69.5689 83.1722L65.7124 84.2341ZM71.5036 104.007C73.6442 110.615 75.5526 117.364 77.2285 124.254L81.1152 123.309C79.4162 116.324 77.4808 109.479 75.3089 102.774L71.5036 104.007ZM77.2364 124.285C78.9728 130.957 79.8438 137.912 79.8438 145.156H83.8438C83.8438 137.588 82.9334 130.293 81.1074 123.277L77.2364 124.285ZM79.8438 145.156C79.8438 150.443 79.2514 155.536 78.0712 160.438L81.9601 161.374C83.2173 156.152 83.8438 150.744 83.8438 145.156H79.8438ZM78.065 160.465C76.9818 165.249 75.2696 169.706 72.9307 173.844L76.413 175.812C78.9491 171.325 80.7995 166.501 81.9663 161.348L78.065 160.465ZM72.9146 173.873C70.665 178.012 67.8286 181.796 64.3983 185.226L67.2267 188.055C70.9214 184.36 73.9913 180.269 76.4291 175.783L72.9146 173.873ZM64.4173 185.208C61.0165 188.519 57.0215 191.306 52.4166 193.564L54.1772 197.155C59.1347 194.725 63.4835 191.7 67.2077 188.074L64.4173 185.208ZM52.3427 197.117C61.8881 202.299 68.7985 209.063 73.1837 217.385L76.7225 215.521C71.9202 206.406 64.3932 199.107 54.2511 193.602L52.3427 197.117ZM73.1879 217.393C77.6134 225.702 79.8438 235.031 79.8438 245.422H83.8438C83.8438 234.438 81.4804 224.454 76.7184 215.513L73.1879 217.393ZM79.8438 245.422C79.8438 252.666 78.9728 259.671 77.2347 266.44L81.109 267.435C82.9334 260.329 83.8438 252.99 83.8438 245.422H79.8438ZM77.23 266.459C75.5539 273.256 73.645 279.961 71.5036 286.571L75.3089 287.804C77.48 281.102 79.4149 274.306 81.1137 267.416L77.23 266.459ZM71.4959 286.596C69.4265 293.274 67.4981 299.906 65.7105 306.492L69.5708 307.54C71.3457 301 73.261 294.414 75.3166 287.779L71.4959 286.596ZM65.7036 306.518C63.9745 313.242 63.1094 320.066 63.1094 326.984H67.1094C67.1094 320.403 67.9318 313.914 69.5776 307.514L65.7036 306.518ZM63.1094 326.984C63.1094 330.849 63.7046 334.538 64.905 338.039L68.6888 336.742C67.6391 333.681 67.1094 330.432 67.1094 326.984H63.1094ZM64.905 338.039C66.1036 341.535 67.8148 344.617 70.0514 347.261L73.1049 344.677C71.2164 342.445 69.7401 339.808 68.6888 336.742L64.905 338.039ZM70.0801 347.294C72.4104 349.928 75.1542 352.012 78.3008 353.535L80.043 349.934C77.377 348.644 75.0584 346.884 73.0761 344.644L70.0801 347.294ZM78.2546 353.512C81.4765 355.175 85.0784 355.984 89.0156 355.984V351.984C85.6404 351.984 82.6797 351.294 80.0892 349.957L78.2546 353.512ZM88.8424 355.977C90.5743 356.127 91.9019 356.746 92.9452 357.789L95.7736 354.961C94.0043 353.192 91.7695 352.216 89.1889 351.992L88.8424 355.977ZM92.9452 357.789C93.9806 358.825 94.4688 360.005 94.4688 361.438H98.4688C98.4688 358.932 97.5506 356.738 95.7736 354.961L92.9452 357.789Z" fill="url(#paint2_linear)"/>
<path d="M93.0898 344.367C93.0898 345.975 92.6243 347.372 91.6934 348.557C90.7624 349.742 89.4928 350.546 87.8848 350.969C87.6309 350.969 86.6152 351.096 84.8379 351.35C83.1452 351.604 80.9447 351.73 78.2363 351.73C69.1803 351.73 61.5208 349.911 55.2578 346.271C48.9948 342.717 43.9167 338.02 40.0234 332.18C36.1302 326.34 33.2949 319.654 31.5176 312.121C29.7402 304.673 28.8516 297.056 28.8516 289.27C28.8516 284.615 29.1901 280.044 29.8672 275.559C30.6289 270.988 31.3906 266.46 32.1523 261.975C32.9987 257.489 33.7604 253.003 34.4375 248.518C35.1992 244.032 35.5801 239.504 35.5801 234.934C35.5801 231.548 35.2415 228.29 34.5645 225.158C33.8874 221.942 32.6602 218.895 30.8828 216.018C29.1901 213.14 26.8626 210.432 23.9004 207.893C20.9382 205.269 17.2142 202.772 12.7285 200.402C11.5436 199.895 10.6549 199.09 10.0625 197.99C9.47005 196.89 9.17383 195.705 9.17383 194.436C9.17383 193.251 9.47005 192.15 10.0625 191.135C10.6549 190.035 11.5436 189.23 12.7285 188.723C17.2142 186.353 20.9382 183.856 23.9004 181.232C26.8626 178.609 29.1901 175.858 30.8828 172.98C32.6602 170.018 33.8874 166.971 34.5645 163.84C35.2415 160.624 35.5801 157.281 35.5801 153.811C35.5801 149.071 35.1992 144.416 34.4375 139.846C33.7604 135.275 32.9987 130.747 32.1523 126.262C31.3906 121.776 30.6289 117.333 29.8672 112.932C29.1901 108.446 28.8516 103.96 28.8516 99.4746C28.8516 91.265 29.7826 83.4362 31.6445 75.9883C33.5911 68.4557 36.5534 61.8118 40.5312 56.0566C44.5938 50.3014 49.7142 45.7311 55.8926 42.3457C62.1556 38.8757 69.6035 37.1406 78.2363 37.1406C80.9447 37.1406 83.1452 37.2676 84.8379 37.5215C86.6152 37.7754 87.6309 37.987 87.8848 38.1562C89.4928 38.4102 90.7624 39.1719 91.6934 40.4414C92.6243 41.6263 93.0898 43.0228 93.0898 44.6309C93.0898 46.7467 92.3281 48.3548 90.8047 49.4551C89.2812 50.5553 87.8001 51.1055 86.3613 51.1055C84.0762 51.1901 81.6641 51.8249 79.125 53.0098C76.5859 54.1947 74.2585 55.8874 72.1426 58.0879C70.0267 60.2038 68.2493 62.7852 66.8105 65.832C65.4564 68.7943 64.7793 72.1374 64.7793 75.8613C64.7793 81.8704 65.541 87.7949 67.0645 93.6348C68.6725 99.4746 70.4076 105.399 72.2695 111.408C74.2161 117.417 75.9512 123.553 77.4746 129.816C79.0827 135.995 79.8867 142.427 79.8867 149.113C79.8867 154.022 79.3366 158.762 78.2363 163.332C77.2207 167.818 75.6126 172.007 73.4121 175.9C71.2962 179.794 68.6302 183.348 65.4141 186.564C62.1979 189.696 58.4316 192.32 54.1152 194.436C63.002 199.26 69.5189 205.607 73.666 213.479C77.8132 221.265 79.8867 229.982 79.8867 239.631C79.8867 246.317 79.0827 252.792 77.4746 259.055C75.9512 265.233 74.2161 271.327 72.2695 277.336C70.4076 283.345 68.6725 289.312 67.0645 295.236C65.541 301.161 64.7793 307.17 64.7793 313.264C64.7793 316.564 65.2871 319.696 66.3027 322.658C67.3184 325.62 68.7572 328.202 70.6191 330.402C72.5658 332.603 74.8509 334.338 77.4746 335.607C80.0983 336.962 83.0605 337.639 86.3613 337.639C88.3079 337.808 89.916 338.527 91.1855 339.797C92.4551 341.066 93.0898 342.59 93.0898 344.367Z" fill="black" fill-opacity="0.16"/>
<path d="M87.8848 350.969V353.969H88.2729L88.6482 353.87L87.8848 350.969ZM84.8379 351.35L84.4136 348.38L84.4032 348.381L84.3929 348.383L84.8379 351.35ZM55.2578 346.271L56.7651 343.678L56.7519 343.67L56.7386 343.662L55.2578 346.271ZM40.0234 332.18L37.5273 333.844L40.0234 332.18ZM31.5176 312.121L34.4374 311.432L34.4356 311.425L31.5176 312.121ZM29.8672 275.559L26.908 275.065L26.9042 275.088L26.9008 275.111L29.8672 275.559ZM32.1523 261.975L29.2044 261.418L29.1993 261.445L29.1947 261.472L32.1523 261.975ZM34.4375 248.518L31.4798 248.015L31.4752 248.043L31.4711 248.07L34.4375 248.518ZM34.5645 225.158L31.6288 225.776L31.6305 225.784L31.6322 225.792L34.5645 225.158ZM30.8828 216.018L28.297 217.539L28.3134 217.567L28.3304 217.594L30.8828 216.018ZM23.9004 207.893L21.9113 210.138L21.9295 210.154L21.948 210.17L23.9004 207.893ZM12.7285 200.402L14.1299 197.75L14.0222 197.693L13.9103 197.645L12.7285 200.402ZM10.0625 191.135L12.6538 192.646L12.6796 192.602L12.7039 192.557L10.0625 191.135ZM12.7285 188.723L13.9103 191.48L14.0222 191.432L14.1299 191.375L12.7285 188.723ZM23.9004 181.232L21.9113 178.987L23.9004 181.232ZM30.8828 172.98L28.3103 171.437L28.3036 171.448L28.297 171.459L30.8828 172.98ZM34.5645 163.84L37.4967 164.474L37.4984 164.466L37.5001 164.458L34.5645 163.84ZM34.4375 139.846L31.4699 140.285L31.4739 140.312L31.4783 140.339L34.4375 139.846ZM32.1523 126.262L29.1947 126.764L29.1993 126.791L29.2044 126.818L32.1523 126.262ZM29.8672 112.932L26.9008 113.379L26.9056 113.411L26.9111 113.443L29.8672 112.932ZM31.6445 75.9883L28.74 75.2377L28.737 75.2492L28.7341 75.2607L31.6445 75.9883ZM40.5312 56.0566L38.0803 54.3266L38.0718 54.3387L38.0634 54.3509L40.5312 56.0566ZM55.8926 42.3457L57.3342 44.9767L57.3465 44.9698L55.8926 42.3457ZM84.8379 37.5215L84.3929 40.4883L84.4032 40.4898L84.4136 40.4913L84.8379 37.5215ZM87.8848 38.1562L86.2207 40.6524L86.7676 41.017L87.4169 41.1195L87.8848 38.1562ZM91.6934 40.4414L89.2741 42.2155L89.3036 42.2557L89.3344 42.2949L91.6934 40.4414ZM86.3613 51.1055V48.1055H86.3058L86.2503 48.1075L86.3613 51.1055ZM72.1426 58.0879L74.2639 60.2092L74.2847 60.1884L74.3051 60.1672L72.1426 58.0879ZM66.8105 65.832L64.0978 64.551L64.0899 64.5678L64.0821 64.5848L66.8105 65.832ZM67.0645 93.6348L64.1616 94.392L64.1667 94.4117L64.1721 94.4312L67.0645 93.6348ZM72.2695 111.408L69.4039 112.296L69.4096 112.314L69.4155 112.333L72.2695 111.408ZM77.4746 129.816L74.5596 130.525L74.5653 130.549L74.5713 130.572L77.4746 129.816ZM78.2363 163.332L75.3197 162.63L75.3149 162.65L75.3104 162.67L78.2363 163.332ZM73.4121 175.9L70.8004 174.424L70.7881 174.446L70.7762 174.468L73.4121 175.9ZM65.4141 186.564L67.5069 188.714L67.5212 188.7L67.5354 188.686L65.4141 186.564ZM54.1152 194.436L52.7948 191.742L47.5768 194.3L52.684 197.072L54.1152 194.436ZM73.666 213.479L71.0119 214.877L71.0182 214.889L73.666 213.479ZM77.4746 259.055L74.5689 258.309L74.5653 258.323L74.5618 258.336L77.4746 259.055ZM72.2695 277.336L69.4155 276.411L69.4096 276.43L69.4039 276.448L72.2695 277.336ZM67.0645 295.236L64.1692 294.45L64.164 294.47L64.159 294.489L67.0645 295.236ZM66.3027 322.658L63.4649 323.631L66.3027 322.658ZM70.6191 330.402L68.329 332.34L68.3503 332.365L68.3722 332.39L70.6191 330.402ZM77.4746 335.607L78.8505 332.942L78.8161 332.924L78.7813 332.907L77.4746 335.607ZM86.3613 337.639L86.6212 334.65L86.4915 334.639H86.3613V337.639ZM90.0898 344.367C90.0898 345.351 89.8212 346.084 89.3344 346.703L94.0523 350.41C95.4275 348.66 96.0898 346.599 96.0898 344.367H90.0898ZM89.3344 346.703C88.849 347.321 88.1666 347.792 87.1213 348.068L88.6482 353.87C90.819 353.299 92.6758 352.162 94.0523 350.41L89.3344 346.703ZM87.8848 347.969C87.5284 347.969 86.9978 348.032 86.5605 348.087C86.0271 348.154 85.3089 348.252 84.4136 348.38L85.2622 354.319C86.1443 354.193 86.8225 354.101 87.3047 354.041C87.5468 354.011 87.726 353.99 87.85 353.978C88.0135 353.961 87.9885 353.969 87.8848 353.969V347.969ZM84.3929 348.383C82.9067 348.606 80.8708 348.73 78.2363 348.73V354.73C81.0186 354.73 83.3837 354.601 85.2829 354.316L84.3929 348.383ZM78.2363 348.73C69.5788 348.73 62.469 346.992 56.7651 343.678L53.7506 348.865C60.5727 352.83 68.7818 354.73 78.2363 354.73V348.73ZM56.7386 343.662C50.8722 340.333 46.1459 335.955 42.5196 330.516L37.5273 333.844C41.6874 340.084 47.1174 345.101 53.777 348.881L56.7386 343.662ZM42.5196 330.516C38.8439 325.002 36.1411 318.653 34.4374 311.432L28.5978 312.81C30.4487 320.655 33.4166 327.678 37.5273 333.844L42.5196 330.516ZM34.4356 311.425C32.7137 304.209 31.8516 296.825 31.8516 289.27H25.8516C25.8516 297.287 26.7668 305.138 28.5995 312.817L34.4356 311.425ZM31.8516 289.27C31.8516 284.761 32.1794 280.34 32.8336 276.006L26.9008 275.111C26.2008 279.749 25.8516 284.469 25.8516 289.27H31.8516ZM32.8264 276.052C33.5876 271.484 34.3488 266.959 35.11 262.477L29.1947 261.472C28.4324 265.961 27.6702 270.492 26.908 275.065L32.8264 276.052ZM35.1003 262.531C35.9534 258.009 36.7213 253.488 37.4039 248.965L31.4711 248.07C30.7995 252.519 30.044 256.969 29.2044 261.418L35.1003 262.531ZM37.3952 249.02C38.1852 244.367 38.5801 239.671 38.5801 234.934H32.5801C32.5801 239.336 32.2133 243.696 31.4798 248.015L37.3952 249.02ZM38.5801 234.934C38.5801 231.347 38.2213 227.875 37.4967 224.524L31.6322 225.792C32.2618 228.704 32.5801 231.749 32.5801 234.934H38.5801ZM37.5001 224.54C36.7495 220.975 35.3893 217.605 33.4352 214.441L28.3304 217.594C29.931 220.185 31.0252 222.909 31.6288 225.776L37.5001 224.54ZM33.4686 214.497C31.5824 211.29 29.025 208.334 25.8528 205.615L21.948 210.17C24.7003 212.529 26.7978 214.99 28.297 217.539L33.4686 214.497ZM25.8895 205.647C22.7063 202.827 18.7709 200.202 14.1299 197.75L11.3272 203.055C15.6575 205.343 19.17 207.71 21.9113 210.138L25.8895 205.647ZM13.9103 197.645C13.3276 197.395 12.9639 197.051 12.7039 196.568L7.42109 199.413C8.34597 201.13 9.75968 202.394 11.5468 203.16L13.9103 197.645ZM12.7039 196.568C12.3507 195.912 12.1738 195.217 12.1738 194.436H6.17383C6.17383 196.193 6.58938 197.868 7.42109 199.413L12.7039 196.568ZM12.1738 194.436C12.1738 193.777 12.3312 193.199 12.6538 192.646L7.47116 189.623C6.6089 191.101 6.17383 192.724 6.17383 194.436H12.1738ZM12.7039 192.557C12.9639 192.074 13.3276 191.73 13.9103 191.48L11.5468 185.965C9.75968 186.731 8.34597 187.995 7.42109 189.712L12.7039 192.557ZM14.1299 191.375C18.7709 188.923 22.7063 186.298 25.8895 183.478L21.9113 178.987C19.17 181.415 15.6575 183.782 11.3272 186.07L14.1299 191.375ZM25.8895 183.478C29.045 180.683 31.5899 177.695 33.4686 174.502L28.297 171.459C26.7903 174.021 24.6803 176.534 21.9113 178.987L25.8895 183.478ZM33.4553 174.524C35.3883 171.302 36.745 167.95 37.4967 164.474L31.6322 163.206C31.0297 165.992 29.932 168.734 28.3103 171.437L33.4553 174.524ZM37.5001 164.458C38.2223 161.028 38.5801 157.477 38.5801 153.811H32.5801C32.5801 157.084 32.2608 160.22 31.6288 163.222L37.5001 164.458ZM38.5801 153.811C38.5801 148.91 38.1862 144.09 37.3967 139.353L31.4783 140.339C32.2123 144.743 32.5801 149.232 32.5801 153.811H38.5801ZM37.4051 139.406C36.7223 134.797 35.9541 130.23 35.1003 125.705L29.2044 126.818C30.0433 131.264 30.7985 135.754 31.4699 140.285L37.4051 139.406ZM35.11 125.759C34.3478 121.271 33.5855 116.824 32.8232 112.42L26.9111 113.443C27.6723 117.841 28.4335 122.281 29.1947 126.764L35.11 125.759ZM32.8336 112.484C32.1786 108.145 31.8516 103.809 31.8516 99.4746H25.8516C25.8516 104.112 26.2016 108.747 26.9008 113.379L32.8336 112.484ZM31.8516 99.4746C31.8516 91.4934 32.7564 83.91 34.555 76.7159L28.7341 75.2607C26.8087 82.9624 25.8516 91.0366 25.8516 99.4746H31.8516ZM34.5491 76.7389C36.4173 69.5098 39.2431 63.1967 42.9991 57.7624L38.0634 54.3509C33.8637 60.427 30.765 67.4016 28.74 75.2377L34.5491 76.7389ZM42.9822 57.7867C46.7812 52.4047 51.5564 48.1425 57.3342 44.9766L54.451 39.7148C47.872 43.3197 42.4063 48.1981 38.0803 54.3266L42.9822 57.7867ZM57.3465 44.9698C63.0815 41.7923 70.008 40.1406 78.2363 40.1406V34.1406C69.1991 34.1406 61.2297 35.959 54.4387 39.7216L57.3465 44.9698ZM78.2363 40.1406C80.8708 40.1406 82.9067 40.2654 84.3929 40.4883L85.2829 34.5547C83.3837 34.2698 81.0186 34.1406 78.2363 34.1406V40.1406ZM84.4136 40.4913C85.2776 40.6148 85.9039 40.7207 86.3208 40.8075C86.5317 40.8515 86.6456 40.8817 86.6895 40.8948C86.7106 40.9012 86.6846 40.8944 86.6283 40.8716C86.5889 40.8557 86.4257 40.7891 86.2207 40.6524L89.5489 35.6601C89.087 35.3522 88.604 35.205 88.4136 35.1479C88.14 35.0658 87.8414 34.9955 87.5445 34.9337C86.9457 34.8089 86.1755 34.6821 85.2622 34.5516L84.4136 40.4913ZM87.4169 41.1195C88.2728 41.2547 88.8288 41.6082 89.2741 42.2155L94.1126 38.6673C92.696 36.7356 90.7128 35.5656 88.3527 35.193L87.4169 41.1195ZM89.3344 42.2949C89.8212 42.9144 90.0898 43.6467 90.0898 44.6309H96.0898C96.0898 42.3989 95.4275 40.3382 94.0523 38.5879L89.3344 42.2949ZM90.0898 44.6309C90.0898 45.9235 89.6837 46.5641 89.0482 47.023L92.5612 51.8871C94.9725 50.1456 96.0898 47.57 96.0898 44.6309H90.0898ZM89.0482 47.023C87.8802 47.8666 87.0012 48.1055 86.3613 48.1055V54.1055C88.5991 54.1055 90.6823 53.2441 92.5612 51.8871L89.0482 47.023ZM86.2503 48.1075C83.4851 48.2099 80.6791 48.9739 77.8563 50.2912L80.3937 55.7283C82.649 54.6758 84.6672 54.1703 86.4724 54.1034L86.2503 48.1075ZM77.8563 50.2912C74.9537 51.6458 72.329 53.5657 69.9801 56.0086L74.3051 60.1672C76.1879 58.2091 78.2182 56.7435 80.3937 55.7283L77.8563 50.2912ZM70.0213 55.9666C67.6327 58.3552 65.6656 61.2311 64.0978 64.551L69.5233 67.1131C70.8331 64.3392 72.4207 62.0524 74.2639 60.2092L70.0213 55.9666ZM64.0821 64.5848C62.525 67.9909 61.7793 71.7685 61.7793 75.8613H67.7793C67.7793 72.5062 68.3877 69.5977 69.539 67.0793L64.0821 64.5848ZM61.7793 75.8613C61.7793 82.1271 62.5739 88.306 64.1616 94.392L69.9673 92.8775C68.5081 87.2838 67.7793 81.6138 67.7793 75.8613H61.7793ZM64.1721 94.4312C65.7889 100.303 67.5329 106.258 69.4039 112.296L75.1351 110.52C73.2822 104.54 71.5561 98.6464 69.9568 92.8383L64.1721 94.4312ZM69.4155 112.333C71.3387 118.269 73.0535 124.334 74.5596 130.525L80.3896 129.107C78.8489 122.773 77.0936 116.565 75.1235 110.484L69.4155 112.333ZM74.5713 130.572C76.1122 136.492 76.8867 142.67 76.8867 149.113H82.8867C82.8867 142.184 82.0531 135.497 80.3779 129.061L74.5713 130.572ZM76.8867 149.113C76.8867 153.796 76.3622 158.299 75.3197 162.63L81.153 164.034C82.311 159.224 82.8867 154.248 82.8867 149.113H76.8867ZM75.3104 162.67C74.3575 166.878 72.853 170.793 70.8004 174.424L76.0238 177.377C78.3722 173.222 80.0839 168.757 81.1623 163.995L75.3104 162.67ZM70.7762 174.468C68.8015 178.101 66.3106 181.425 63.2927 184.443L67.5354 188.686C70.9498 185.271 73.7909 181.486 76.048 177.333L70.7762 174.468ZM63.3212 184.415C60.3477 187.31 56.8468 189.756 52.7948 191.742L55.4357 197.129C60.0165 194.884 64.0481 192.082 67.5069 188.714L63.3212 184.415ZM52.684 197.072C61.1231 201.653 67.1776 207.6 71.0119 214.877L76.3202 212.08C71.8602 203.615 64.8808 196.866 55.5465 191.799L52.684 197.072ZM71.0182 214.889C74.9129 222.201 76.8867 230.427 76.8867 239.631H82.8867C82.8867 229.538 80.7134 220.329 76.3139 212.068L71.0182 214.889ZM76.8867 239.631C76.8867 246.074 76.1122 252.298 74.5689 258.309L80.3804 259.801C82.0531 253.286 82.8867 246.56 82.8867 239.631H76.8867ZM74.5618 258.336C73.0554 264.446 71.34 270.471 69.4155 276.411L75.1235 278.26C77.0923 272.183 78.8469 266.02 80.3874 259.773L74.5618 258.336ZM69.4039 276.448C67.5317 282.49 65.7868 288.491 64.1692 294.45L69.9597 296.022C71.5583 290.133 73.2834 284.2 75.1351 278.224L69.4039 276.448ZM64.159 294.489C62.573 300.657 61.7793 306.917 61.7793 313.264H67.7793C67.7793 307.423 68.509 301.665 69.9699 295.983L64.159 294.489ZM61.7793 313.264C61.7793 316.877 62.3362 320.339 63.4649 323.631L69.1406 321.685C68.238 319.053 67.7793 316.251 67.7793 313.264H61.7793ZM63.4649 323.631C64.591 326.916 66.206 329.831 68.329 332.34L72.9093 328.465C71.3083 326.572 70.0457 324.325 69.1406 321.685L63.4649 323.631ZM68.3722 332.39C70.5798 334.886 73.1838 336.864 76.1679 338.308L78.7813 332.907C76.518 331.812 74.5517 330.32 72.8661 328.415L68.3722 332.39ZM76.0987 338.273C79.1959 339.872 82.639 340.639 86.3613 340.639V334.639C83.4821 334.639 81.0007 334.051 78.8505 332.942L76.0987 338.273ZM86.1014 340.627C87.4116 340.741 88.3392 341.193 89.0642 341.918L93.3069 337.676C91.4928 335.862 89.2043 334.875 86.6212 334.65L86.1014 340.627ZM89.0642 341.918C89.7776 342.632 90.0898 343.395 90.0898 344.367H96.0898C96.0898 341.785 95.1326 339.501 93.3069 337.676L89.0642 341.918Z" fill="url(#paint3_linear)"/>
<defs>
<linearGradient id="paint0_linear" x1="-235" y1="207" x2="366" y2="178" gradientUnits="userSpaceOnUse">
<stop offset="0.0497428" stop-color="#E31C37"/>
<stop offset="0.536291" stop-color="#E31C37" stop-opacity="0"/>
</linearGradient>
<linearGradient id="paint1_linear" x1="166.5" y1="0" x2="166.5" y2="396" gradientUnits="userSpaceOnUse">
<stop offset="0.030303" stop-color="#9A9A9A" stop-opacity="0.82"/>
<stop offset="0.0984849" stop-color="#E31C37" stop-opacity="0.16"/>
<stop offset="0.393939" stop-color="#9A9A9A" stop-opacity="0.27"/>
<stop offset="0.641414" stop-color="#9A9A9A" stop-opacity="0.49"/>
<stop offset="0.883838" stop-color="#E31C37" stop-opacity="0.18"/>
<stop offset="1" stop-color="#9A9A9A" stop-opacity="0.82"/>
</linearGradient>
<linearGradient id="paint2_linear" x1="166.5" y1="0" x2="166.5" y2="396" gradientUnits="userSpaceOnUse">
<stop offset="0.123737" stop-color="#9A9A9A" stop-opacity="0.82"/>
<stop offset="0.310606" stop-color="#9A9A9A" stop-opacity="0.2"/>
<stop offset="0.436869" stop-color="#9A9A9A" stop-opacity="0.03"/>
<stop offset="0.580808" stop-color="#9A9A9A" stop-opacity="0"/>
<stop offset="0.757576" stop-color="#9A9A9A" stop-opacity="0.24"/>
<stop offset="1" stop-color="#9A9A9A" stop-opacity="0.82"/>
</linearGradient>
<linearGradient id="paint3_linear" x1="172.5" y1="18" x2="172.5" y2="414" gradientUnits="userSpaceOnUse">
<stop offset="0.0909091" stop-color="#3B2C98" stop-opacity="0"/>
<stop offset="0.454545" stop-color="#E31C37"/>
<stop offset="0.876041" stop-color="#3B2C98" stop-opacity="0"/>
</linearGradient>
</defs>
</svg>
