<svg width="236" height="187" viewBox="0 0 236 187" fill="none" xmlns="http://www.w3.org/2000/svg">
<rect x="1.28027" y="0.745358" width="131.613" height="164.919" rx="11" transform="matrix(0.978148 -0.207912 0.302122 0.953269 -0.197212 28.0807)" fill="#0C0C0C" stroke="#E31C37" stroke-width="2"/>
<rect x="51" y="20" width="134" height="166" rx="11" fill="#0C0C0C" stroke="#E31C37" stroke-width="2"/>
<line y1="-1" x2="29.7069" y2="-1" transform="matrix(0.805768 0.592232 -0.805768 0.592232 64.7883 63.9144)" stroke="#E31C37" stroke-width="2"/>
<line y1="-1" x2="29.7069" y2="-1" transform="matrix(0.805768 -0.592232 0.805768 0.592232 64.8658 63.9144)" stroke="#E31C37" stroke-width="2"/>
<line y1="-1" x2="29.7069" y2="-1" transform="matrix(-0.805768 -0.592232 0.805768 -0.592232 150.427 63.9144)" stroke="#E31C37" stroke-width="2"/>
<line y1="-1" x2="29.7069" y2="-1" transform="matrix(-0.805768 0.592232 -0.805768 -0.592232 150.349 63.9144)" stroke="#E31C37" stroke-width="2"/>
<line y1="-1" x2="37.4605" y2="-1" transform="matrix(-0.443772 0.89614 -0.966031 -0.258427 113.353 47.9797)" stroke="#E31C37" stroke-width="2"/>
<line x1="65" y1="102" x2="141" y2="102" stroke="#E31C37" stroke-width="2"/>
<line x1="65" y1="119" x2="129.6" y2="119" stroke="#E31C37" stroke-width="2"/>
<line x1="65" y1="136" x2="122" y2="136" stroke="#E31C37" stroke-width="2"/>
<mask id="path-11-inside-1" fill="white">
<path fill-rule="evenodd" clip-rule="evenodd" d="M227.163 42.7716C231.673 45.9295 232.04 53.2036 228.017 59.093L228.018 59.0937L158.759 158.005L156.649 156.528C156.437 157.865 155.686 159.128 154.404 159.948L147.804 164.167C144.044 166.57 139.258 163.219 140.231 158.865L141.938 151.219C142.27 149.734 143.2 148.597 144.384 147.94L142.274 146.462L211.408 47.7291L211.417 47.7154L211.427 47.7018L211.533 47.5506L211.534 47.5512C215.692 41.7567 222.653 39.6137 227.163 42.7716Z"/>
</mask>
<path fill-rule="evenodd" clip-rule="evenodd" d="M227.163 42.7716C231.673 45.9295 232.04 53.2036 228.017 59.093L228.018 59.0937L158.759 158.005L156.649 156.528C156.437 157.865 155.686 159.128 154.404 159.948L147.804 164.167C144.044 166.57 139.258 163.219 140.231 158.865L141.938 151.219C142.27 149.734 143.2 148.597 144.384 147.94L142.274 146.462L211.408 47.7291L211.417 47.7154L211.427 47.7018L211.533 47.5506L211.534 47.5512C215.692 41.7567 222.653 39.6137 227.163 42.7716Z" fill="#0C0C0C"/>
<path d="M228.017 59.093L226.365 57.965L225.25 59.5974L226.87 60.7313L228.017 59.093ZM228.018 59.0937L229.656 60.2409L230.803 58.6026L229.165 57.4554L228.018 59.0937ZM158.759 158.005L157.612 159.644L159.25 160.791L160.397 159.153L158.759 158.005ZM156.649 156.528L157.796 154.889L155.174 153.054L154.673 156.214L156.649 156.528ZM154.404 159.948L153.327 158.262L153.327 158.262L154.404 159.948ZM147.804 164.167L146.726 162.482L146.726 162.482L147.804 164.167ZM140.231 158.865L138.279 158.429L138.279 158.429L140.231 158.865ZM141.938 151.219L139.986 150.783L141.938 151.219ZM144.384 147.94L145.354 149.689L148.153 148.137L145.531 146.302L144.384 147.94ZM142.274 146.462L140.636 145.315L139.488 146.953L141.127 148.101L142.274 146.462ZM211.408 47.7291L213.046 48.8762L213.046 48.8755L211.408 47.7291ZM211.417 47.7154L209.779 46.5675L209.778 46.569L211.417 47.7154ZM211.427 47.7018L213.064 48.8497L213.065 48.8489L211.427 47.7018ZM211.533 47.5506L212.68 45.9123L211.041 44.7651L209.894 46.4034L211.533 47.5506ZM211.534 47.5512L210.386 49.1895L212.006 50.3235L213.158 48.7173L211.534 47.5512ZM229.668 60.2211C234.02 53.8501 234.086 45.1774 228.31 41.1333L226.016 44.4099C229.26 46.6815 230.059 52.5571 226.365 57.965L229.668 60.2211ZM229.165 57.4554L229.164 57.4547L226.87 60.7313L226.871 60.732L229.165 57.4554ZM160.397 159.153L229.656 60.2409L226.38 57.9466L157.121 156.858L160.397 159.153ZM155.501 158.166L157.612 159.644L159.906 156.367L157.796 154.889L155.501 158.166ZM154.673 156.214C154.546 157.018 154.101 157.768 153.327 158.262L155.481 161.633C157.271 160.489 158.327 158.712 158.624 156.841L154.673 156.214ZM153.327 158.262L146.726 162.482L148.881 165.852L155.481 161.633L153.327 158.262ZM146.726 162.482C144.471 163.924 141.599 161.913 142.183 159.3L138.279 158.429C136.917 164.525 143.617 169.217 148.881 165.852L146.726 162.482ZM142.183 159.3L143.89 151.655L139.986 150.783L138.279 158.429L142.183 159.3ZM143.89 151.655C144.09 150.758 144.642 150.084 145.354 149.689L143.414 146.191C141.758 147.11 140.449 148.71 139.986 150.783L143.89 151.655ZM141.127 148.101L143.237 149.578L145.531 146.302L143.421 144.824L141.127 148.101ZM209.769 46.5819L140.636 145.315L143.912 147.609L213.046 48.8762L209.769 46.5819ZM209.778 46.569L209.769 46.5827L213.046 48.8755L213.056 48.8618L209.778 46.569ZM209.789 46.5539L209.779 46.5675L213.055 48.8633L213.064 48.8497L209.789 46.5539ZM209.894 46.4034L209.788 46.5546L213.065 48.8489L213.171 48.6977L209.894 46.4034ZM212.681 45.9129L212.68 45.9123L210.385 49.1889L210.386 49.1895L212.681 45.9129ZM228.31 41.1333C222.534 37.0891 214.407 40.1168 209.909 46.3852L213.158 48.7173C216.977 43.3966 222.771 42.1382 226.016 44.4099L228.31 41.1333Z" fill="#E31C37" mask="url(#path-11-inside-1)"/>
<line x1="210.259" y1="49.3691" x2="226.745" y2="60.9122" stroke="#E31C37" stroke-width="2"/>
<line x1="205.642" y1="55.9632" x2="222.127" y2="67.5063" stroke="#E31C37" stroke-width="2"/>
<line x1="140.9" y1="157.546" x2="149.143" y2="163.318" stroke="#E31C37" stroke-width="2"/>
<line x1="143.54" y1="144.654" x2="160.025" y2="156.197" stroke="#E31C37" stroke-width="2"/>
</svg>
